<?xml version="1.0" encoding="UTF-8" standalone="no"?>
<!DOCTYPE svg PUBLIC "-//W3C//DTD SVG 20010904//EN"
              "http://www.w3.org/TR/2001/REC-SVG-20010904/DTD/svg10.dtd">

<svg xmlns="http://www.w3.org/2000/svg"
     width="4.5in" height="6.30556in"
     viewBox="0 0 324 454">
  <path id="dynamics logo"
        fill="#15224e" stroke="#15224e" stroke-width="1"
        d="M 35.01,11.00
           C 35.01,11.00 298.01,153.51 298.01,153.51
             298.01,153.51 209.57,216.00 209.57,216.00
             209.57,216.00 35.00,132.00 35.00,132.00
             35.00,132.00 35.01,11.00 35.01,11.00 Z
           M 307.99,166.00
           C 307.99,166.00 308.00,300.99 308.00,300.99
             308.00,300.99 37.00,448.99 37.00,448.99
             37.00,448.99 37.00,153.01 37.00,153.01
             37.00,153.01 122.00,208.49 122.00,208.49
             122.00,208.49 45.99,436.00 45.99,436.00
             45.99,436.00 307.99,166.00 307.99,166.00 Z" />
</svg>
