<svg xmlns="http://www.w3.org/2000/svg" viewBox="0 0 32 32" enable-background="new 0 0 32 32">
    <path style="text-indent:0;text-align:start;line-height:normal;text-transform:none;block-progression:tb;-inkscape-font-specification:Bitstream Vera Sans" d="M 20 5 L 20 6 L 20 8.5 L 12 14.09375 L 12 13 L 12 12 L 11 12 L 3 12 L 2 12 L 2 13 L 2 19 L 2 20 L 3 20 L 11 20 L 12 20 L 12 19 L 12 17.90625 L 20 23.5 L 20 26 L 20 27 L 21 27 L 29 27 L 30 27 L 30 26 L 30 20 L 30 19 L 29 19 L 21 19 L 20 19 L 20 20 L 20 21.09375 L 12.71875 16 L 20 10.90625 L 20 12 L 20 13 L 21 13 L 29 13 L 30 13 L 30 12 L 30 6 L 30 5 L 29 5 L 21 5 L 20 5 z M 22 7 L 28 7 L 28 11 L 22 11 L 22 7 z M 4 14 L 10 14 L 10 18 L 4 18 L 4 14 z M 22 21 L 28 21 L 28 25 L 22 25 L 22 21 z" color="#000" overflow="visible" enable-background="accumulate" font-family="Bitstream Vera Sans"/>
</svg>