<svg xmlns="http://www.w3.org/2000/svg" viewBox="0 0 32 32" enable-background="new 0 0 32 32">
    <path style="text-indent:0;text-align:start;line-height:normal;text-transform:none;block-progression:tb;-inkscape-font-specification:Bitstream Vera Sans" d="M 21.5 5 C 19.85839 5 18.357244 5.2807983 17.1875 5.8125 C 16.602628 6.0783508 16.089581 6.4116467 15.6875 6.84375 C 15.285419 7.2758533 15 7.85758 15 8.5 L 15 12.5 L 15 12.90625 C 14.936603 12.874874 14.877738 12.842154 14.8125 12.8125 C 13.642756 12.280798 12.14161 12 10.5 12 C 8.8583897 12 7.3572437 12.280798 6.1875 12.8125 C 5.6026281 13.078351 5.0895814 13.411647 4.6875 13.84375 C 4.2854186 14.275853 4 14.85758 4 15.5 L 4 19.5 L 4 23.5 C 4 24.147619 4.3126875 24.723117 4.71875 25.15625 C 5.1248125 25.589383 5.6318552 25.923397 6.21875 26.1875 C 7.3925396 26.715705 8.8777778 27 10.5 27 C 12.122222 27 13.60746 26.715705 14.78125 26.1875 C 15.368145 25.923397 15.875187 25.589383 16.28125 25.15625 C 16.687313 24.723117 17 24.147619 17 23.5 L 17 23.0625 C 17.077064 23.10122 17.138658 23.151458 17.21875 23.1875 C 18.39254 23.715705 19.877778 24 21.5 24 C 23.122222 24 24.60746 23.715705 25.78125 23.1875 C 26.368145 22.923397 26.875187 22.589383 27.28125 22.15625 C 27.687313 21.723117 28 21.147619 28 20.5 L 28 16.5 L 28 12.5 L 28 8.5 C 28 7.85758 27.714581 7.2758533 27.3125 6.84375 C 26.910419 6.4116467 26.397372 6.0783508 25.8125 5.8125 C 24.642756 5.2807983 23.14161 5 21.5 5 z M 21.5 7 C 22.895956 7 24.147885 7.2831296 24.96875 7.65625 C 25.379182 7.8428102 25.689201 8.0526615 25.84375 8.21875 C 25.998299 8.3848385 26 8.4520641 26 8.5 C 26 8.547936 25.9983 8.6151615 25.84375 8.78125 C 25.689201 8.9473385 25.379182 9.1571898 24.96875 9.34375 C 24.147885 9.7168704 22.895956 10 21.5 10 C 20.104044 10 18.852115 9.7168704 18.03125 9.34375 C 17.620818 9.1571898 17.310799 8.9473385 17.15625 8.78125 C 17.001701 8.6151615 17 8.5479359 17 8.5 C 17 8.452064 17.0017 8.3848385 17.15625 8.21875 C 17.310799 8.0526615 17.620818 7.8428102 18.03125 7.65625 C 18.852115 7.2831296 20.104044 7 21.5 7 z M 17 11.09375 C 17.063397 11.125126 17.122262 11.157846 17.1875 11.1875 C 18.357244 11.719202 19.85839 12 21.5 12 C 23.14161 12 24.642756 11.719202 25.8125 11.1875 C 25.877738 11.157846 25.936603 11.125126 26 11.09375 L 26 12.5 C 26 12.55238 26.000187 12.645633 25.84375 12.8125 C 25.687313 12.979367 25.381855 13.189103 24.96875 13.375 C 24.14254 13.746795 22.877778 14 21.5 14 C 20.122222 14 18.85746 13.746795 18.03125 13.375 C 17.618145 13.189103 17.312687 12.979367 17.15625 12.8125 C 16.999813 12.645633 17 12.552381 17 12.5 L 17 11.09375 z M 10.5 14 C 11.895956 14 13.147885 14.28313 13.96875 14.65625 C 14.379182 14.84281 14.689201 15.052662 14.84375 15.21875 C 14.998299 15.384838 15 15.452064 15 15.5 C 15 15.54794 14.9983 15.615162 14.84375 15.78125 C 14.689201 15.947338 14.379182 16.15719 13.96875 16.34375 C 13.147885 16.71687 11.895956 17 10.5 17 C 9.1040442 17 7.8521148 16.71687 7.03125 16.34375 C 6.6208176 16.15719 6.3107989 15.947338 6.15625 15.78125 C 6.0017011 15.615162 6 15.547936 6 15.5 C 6 15.45206 6.0017 15.384838 6.15625 15.21875 C 6.3107989 15.052662 6.6208176 14.84281 7.03125 14.65625 C 7.8521148 14.28313 9.1040442 14 10.5 14 z M 17 15.0625 C 17.077064 15.10122 17.138658 15.151458 17.21875 15.1875 C 18.39254 15.715705 19.877778 16 21.5 16 C 23.122222 16 24.60746 15.715705 25.78125 15.1875 C 25.861342 15.151458 25.922936 15.10122 26 15.0625 L 26 16.5 C 26 16.55238 26.000187 16.645633 25.84375 16.8125 C 25.687313 16.979367 25.381855 17.189103 24.96875 17.375 C 24.14254 17.746795 22.877778 18 21.5 18 C 20.122222 18 18.85746 17.746795 18.03125 17.375 C 17.618145 17.189103 17.312687 16.979367 17.15625 16.8125 C 16.999813 16.645633 17 16.552381 17 16.5 L 17 15.0625 z M 6 18.09375 C 6.0633966 18.125126 6.1222618 18.157846 6.1875 18.1875 C 7.3572437 18.719202 8.8583897 19 10.5 19 C 12.14161 19 13.642756 18.719202 14.8125 18.1875 C 14.877738 18.157846 14.936603 18.125126 15 18.09375 L 15 19.5 C 15 19.55238 15.000187 19.645633 14.84375 19.8125 C 14.687313 19.979367 14.381855 20.189103 13.96875 20.375 C 13.14254 20.746795 11.877778 21 10.5 21 C 9.1222222 21 7.8574604 20.746795 7.03125 20.375 C 6.6181448 20.189103 6.3126875 19.979367 6.15625 19.8125 C 5.9998125 19.645633 6 19.552381 6 19.5 L 6 18.09375 z M 17 19.0625 C 17.077064 19.10122 17.138658 19.151458 17.21875 19.1875 C 18.39254 19.715705 19.877778 20 21.5 20 C 23.122222 20 24.60746 19.715705 25.78125 19.1875 C 25.861342 19.151458 25.922936 19.10122 26 19.0625 L 26 20.5 C 26 20.55238 26.000187 20.645633 25.84375 20.8125 C 25.687313 20.979367 25.381855 21.189103 24.96875 21.375 C 24.14254 21.746795 22.877778 22 21.5 22 C 20.122222 22 18.85746 21.746795 18.03125 21.375 C 17.618145 21.189103 17.312687 20.979367 17.15625 20.8125 C 16.999813 20.645633 17 20.552381 17 20.5 L 17 19.5 L 17 19.0625 z M 6 22.0625 C 6.0770643 22.10122 6.1386577 22.151458 6.21875 22.1875 C 7.3925396 22.715705 8.8777778 23 10.5 23 C 12.122222 23 13.60746 22.715705 14.78125 22.1875 C 14.861342 22.151458 14.922936 22.10122 15 22.0625 L 15 23.5 C 15 23.55238 15.000187 23.645633 14.84375 23.8125 C 14.687313 23.979367 14.381855 24.189103 13.96875 24.375 C 13.14254 24.746795 11.877778 25 10.5 25 C 9.1222222 25 7.8574604 24.746795 7.03125 24.375 C 6.6181448 24.189103 6.3126875 23.979367 6.15625 23.8125 C 5.9998125 23.645633 6 23.552381 6 23.5 L 6 22.0625 z" color="#000" overflow="visible" enable-background="accumulate" font-family="Bitstream Vera Sans"/>
</svg>