<svg xmlns="http://www.w3.org/2000/svg" viewBox="0 0 32 32" enable-background="new 0 0 32 32">
    <path style="text-indent:0;text-align:start;line-height:normal;text-transform:none;block-progression:tb;-inkscape-font-specification:Bitstream Vera Sans" d="M 3 3 L 3 4 L 3 24 L 3 25 L 4 25 L 12.5 25 C 14.116658 27.414435 16.885546 29 20 29 C 24.958718 29 29 24.958718 29 20 C 29 15.384126 25.483882 11.568789 21 11.0625 L 21 4 L 21 3 L 20 3 L 4 3 L 3 3 z M 5 5 L 19 5 L 19 11.0625 C 17.264584 11.258451 15.670105 11.957097 14.375 13 L 7 13 L 7 15 L 12.5 15 C 12.08749 15.616072 11.782992 16.28998 11.53125 17 L 7 17 L 7 19 L 11.0625 19 C 11.024895 19.333041 11 19.657156 11 20 C 11 21.049574 11.198766 22.062252 11.53125 23 L 5 23 L 5 5 z M 7 9 L 7 11 L 17 11 L 17 9 L 7 9 z M 20 13 C 23.877838 13 27 16.122162 27 20 C 27 23.877838 23.877838 27 20 27 C 16.122162 27 13 23.877838 13 20 C 13 16.122162 16.122162 13 20 13 z M 16.6875 15 C 15.5875 15.7 14.8125 16.8 14.3125 18 L 23 18 L 23 15 L 16.6875 15 z M 14.09375 21 C 14.29375 22.1 14.8 23.2 15.5 24 L 23 24 L 23 21 L 14.09375 21 z" color="#000" overflow="visible" enable-background="accumulate" font-family="Bitstream Vera Sans"/>
</svg>