<svg xmlns="http://www.w3.org/2000/svg" viewBox="0 0 32 32" enable-background="new 0 0 32 32">
    <path style="text-indent:0;text-align:start;line-height:normal;text-transform:none;block-progression:tb;-inkscape-font-specification:Bitstream Vera Sans" d="M 16 8 C 13.250421 8 11 10.250421 11 13 C 11 14.515649 11.706976 15.862268 12.78125 16.78125 C 11.713282 17.341324 10.782864 18.182903 10.125 19.1875 C 9.7680325 18.670371 9.3015664 18.196343 8.78125 17.84375 C 9.5247394 17.116062 10 16.114227 10 15 C 10 12.802706 8.1972944 11 6 11 C 3.8027056 11 2 12.802706 2 15 C 2 16.114227 2.4752606 17.116062 3.21875 17.84375 C 1.8879616 18.745561 1 20.284091 1 22 L 3 22 C 3 20.345455 4.3454545 19 6 19 C 7.6545455 19 9 20.345455 9 22 L 9 23 L 11 23 C 11 20.245455 13.245455 18 16 18 C 18.754545 18 21 20.245455 21 23 L 23 23 L 23 22 C 23 20.345455 24.345455 19 26 19 C 27.654545 19 29 20.345455 29 22 L 31 22 C 31 20.284091 30.112038 18.745561 28.78125 17.84375 C 29.524739 17.116062 30 16.114227 30 15 C 30 12.802706 28.197294 11 26 11 C 23.802706 11 22 12.802706 22 15 C 22 16.114227 22.475261 17.116062 23.21875 17.84375 C 22.698434 18.196343 22.231967 18.670371 21.875 19.1875 C 21.217136 18.182903 20.286718 17.341324 19.21875 16.78125 C 20.293024 15.862268 21 14.515649 21 13 C 21 10.250421 18.749579 8 16 8 z M 16 10 C 17.668699 10 19 11.331301 19 13 C 19 14.668699 17.668699 16 16 16 C 14.331301 16 13 14.668699 13 13 C 13 11.331301 14.331301 10 16 10 z M 6 13 C 7.116414 13 8 13.883586 8 15 C 8 16.116414 7.116414 17 6 17 C 4.883586 17 4 16.116414 4 15 C 4 13.883586 4.883586 13 6 13 z M 26 13 C 27.116414 13 28 13.883586 28 15 C 28 16.116414 27.116414 17 26 17 C 24.883586 17 24 16.116414 24 15 C 24 13.883586 24.883586 13 26 13 z" color="#000" overflow="visible" enable-background="accumulate" font-family="Bitstream Vera Sans"/>
</svg>